<?xml version="1.0" encoding="utf-8"?>
<!-- Generator: Adobe Illustrator 16.0.0, SVG Export Plug-In . SVG Version: 6.00 Build 0)  -->
<!DOCTYPE svg PUBLIC "-//W3C//DTD SVG 1.1//EN" "http://www.w3.org/Graphics/SVG/1.1/DTD/svg11.dtd">
<svg version="1.1" xmlns="http://www.w3.org/2000/svg" xmlns:xlink="http://www.w3.org/1999/xlink" x="0px" y="0px" width="298px"
	 height="148.5px" viewBox="0 0 298 148.5" enable-background="new 0 0 298 148.5" xml:space="preserve">
<g id="Layer_1" display="none">
</g>
<g id="Layer_3">
</g>
<g id="Layer_2">
	<path opacity="0.7" d="M64.496,118.557c-13.562,0-52.986,10.991-52.986,14.959c0,4.768,16.824,14.158,49.713,14.158
		c34.41,0,50.732-13.977,50.732-18.636C111.955,124.38,76.008,118.557,64.496,118.557z"/>
	<path fill="#7ADCFF" d="M119.049,23.817c0,0-14.473-13.975-46.09-13.643s-46.59,13.643-46.59,13.643l3.798,105.061
		c0,0,8.019,11.551,37.175,13.967c29.157,2.416,48.564-14.848,48.564-14.848L119.049,23.817z"/>
	<path fill="#5DCBE8" d="M27.011,45.884c0,0-7.825-5.021-14.832-2.507C5.172,45.89-0.406,87.681,1.369,94.298
		c4.221,15.734,25.642,15.704,25.642,15.704l1.817-14.174c0,0-16.5-1.199-15.636-11.258c0.864-10.058-1.022-26.125,6.886-26.495
		c7.909-0.368,8.237,1.001,8.237,1.001l-1.305-11.505"/>
	<path opacity="0.2" fill="#FFFFFF" d="M99.611,123.468c-0.057,1.982,1.465,3.636,3.397,3.689l0,0
		c1.933,0.055,3.544-1.51,3.599-3.493l2.195-77.992c0.056-1.983-1.465-3.636-3.398-3.689l0,0c-1.932-0.055-3.543,1.509-3.599,3.493
		L99.611,123.468z"/>
	<path opacity="0.3" d="M110.677,26.675c-0.001-2.501-15.335-11.166-37.501-9.5s-38.964,7.001-38.732,9.5
		c0.232,2.499,5.893,4.931,5.893,4.931s10.34-2.765,29.006-3.432c18.668-0.667,31.668,4.333,31.668,4.333
		S110.678,29.843,110.677,26.675z"/>
	<g>
		<g>
			<path fill="#111111" d="M72.35,145.339c-0.429,0-0.852,0-1.28,0c-0.009,0-0.012,0-0.021,0v-0.007
				c-33.62-0.379-43.266-15.376-43.664-16.021l-0.352-0.569l-0.021-0.669L23.852,23.28l0.268-0.552
				c0.288-0.597,7.388-14.339,45.84-15.022V7.681l2.5-0.006l0.346,0.001l2.654-0.001v0.031c38.452,0.684,45.552,14.426,45.84,15.022
				l0.268,0.552l-3.183,105.508l-0.397,0.596c-0.429,0.644-10.797,15.582-45.617,15.948v0.007
				C72.363,145.339,72.355,145.339,72.35,145.339z M31.987,127.153c0.831,1.047,3.221,3.688,7.933,6.307
				c5.574,3.099,15.599,6.784,31.806,6.877c29.046-0.156,39.64-10.763,41.706-13.223l3.096-102.607
				c-1.567-2.096-10.562-11.729-43.575-11.826L72.64,12.68l-0.174,0.001c-33.058,0.097-42.013,9.709-43.575,11.82L31.987,127.153z"
				/>
		</g>
	</g>
	<g>
		<path fill="#111111" d="M26.066,112.033c-2.872,0-10.879-0.616-20.851-6.602c-4.197-2.52-6.15-9.108-5.807-19.582
			c0.502-15.322,6.948-41.727,11.854-44.251c5.628-2.899,15.537,1.938,16.648,2.5L26.11,47.67
			c-3.499-1.763-10.127-4.002-13.017-2.515C10.322,47.353,2.404,74.58,3.468,91.392c0.357,5.661,1.674,9.33,3.807,10.61
			c11.178,6.709,19.463,6.013,19.549,6.009l0.375,3.982C27.125,112,26.734,112.033,26.066,112.033z"/>
	</g>
	<g>
		<path fill="#111111" d="M27.826,96.658c-1.772,0-6.676-0.351-12.726-3.73c-2.771-1.55-4.08-5.409-3.89-11.471
			c0.26-8.292,3.994-23.628,7.509-25.314c3.566-1.704,9.362,0.846,10.488,1.376l-1.701,3.62c-1.963-0.918-5.436-1.975-6.908-1.45
			c-1.667,1.959-6.383,17.176-5.233,25.826c0.275,2.074,0.875,3.467,1.688,3.922c6.307,3.523,11.081,3.215,11.13,3.214l0.348,3.984
			C28.485,96.639,28.241,96.658,27.826,96.658z"/>
	</g>
	<g>
		<path fill="#111111" d="M70.045,37.675c-17.596,0-37.201-4.312-37.201-10.5c0-6.528,26.437-11.5,39.666-11.5
			c8.3,0,17.984,1.02,25.276,2.661c9.549,2.15,14.391,5.124,14.391,8.839c0,0.995,0,4.022-14.468,7.337
			C89.064,36.492,78.723,37.675,70.045,37.675z M72.51,18.675c-16.769,0-35.974,5.926-36.67,8.539
			c0.004,2.124,13.635,7.461,34.205,7.461c18.464,0,37.611-5.124,39.127-7.609C108.843,22.967,90.172,18.675,72.51,18.675z"/>
	</g>
	<path fill="#111111" d="M104.037,31.225c0,0-15.629-4.55-31.328-4.55s-33.752,4.55-33.752,4.55s9.457,2.951,31.088,4.95
		S104.037,31.225,104.037,31.225z"/>
	<g>
		<circle fill="#111111" cx="89.379" cy="98.624" r="3.935"/>
		<circle fill="#111111" cx="58.069" cy="98.624" r="3.935"/>
		<g>
			<path fill="#111111" d="M82.529,108.847c0.08,3.626-2.219,7.02-5.854,8.158c-4.405,1.38-9.096-1.073-10.476-5.479
				c-0.279-0.892-0.394-1.794-0.375-2.68H82.529z"/>
		</g>
	</g>
	<path d="M119.049,23.817"/>
	<g>
		<path fill="#111111" d="M154.551,44.363l-9.67-30.029h5.285l7.087,22.702h0.12l7.988-22.702h5.045l8.168,22.883h0.119
			l7.088-22.883h5.285l-9.49,30.029h-5.345l-8.168-22.762h-0.12l-8.048,22.762H154.551z"/>
		<path fill="#111111" d="M222.96,40.88c0,0-4.624,4.204-11.831,4.204c-9.73,0-16.938-6.426-16.938-15.735
			c0-9.85,7.027-15.735,15.916-15.735c9.309,0,13.453,6.006,13.453,12.912c0,1.322-0.24,3.544-0.24,3.784h-23.963
			c0.42,6.126,5.404,10.21,11.771,10.21c5.404,0,8.768-3.003,8.768-3.003L222.96,40.88z M210.107,17.998
			c-5.045,0-9.369,3.062-10.391,8.228h18.799C218.516,21.721,215.753,17.998,210.107,17.998z"/>
		<path fill="#111111" d="M230.408,0.521h5.166v16.816h0.119c2.402-2.343,5.525-3.724,9.25-3.724
			c8.287,0,15.135,6.727,15.135,15.735s-6.848,15.735-15.135,15.735c-3.725,0-7.147-1.441-9.369-3.964h-0.121l-0.06,3.243h-4.985
			V0.521z M235.574,35.715c1.981,2.943,5.164,4.685,8.828,4.685c5.705,0,10.391-4.685,10.391-11.051s-4.686-11.051-10.391-11.051
			c-3.664,0-6.787,1.862-8.828,4.864V35.715z"/>
		<path fill="#111111" d="M169.385,64.383c-1.441-1.922-3.904-3.184-7.567-3.184c-5.825,0-10.63,4.145-10.63,11.051
			c0,6.547,4.384,11.051,10.99,11.051c4.984,0,7.567-3.303,7.567-3.303l3.544,2.822c0,0-3.844,5.165-11.111,5.165
			c-9.729,0-16.275-6.427-16.275-15.735c0-9.85,7.146-15.735,15.915-15.735c5.285,0,9.069,2.042,11.231,5.165L169.385,64.383z"/>
		<path fill="#111111" d="M178.575,60.779c2.402-2.402,6.786-4.265,12.012-4.265c6.546,0,11.892,3.604,11.892,10.87v7.508
			c0,4.084-0.24,7.688,2.582,7.688c0.181,0,0.602-0.061,0.602-0.061l0.6,4.564c0,0-0.54,0.181-1.561,0.181
			c-2.402,0-4.745-0.961-5.887-3.304h-0.119c-2.883,2.343-6.307,4.024-10.391,4.024c-5.405,0-11.592-2.042-11.592-8.408
			c0-8.468,9.609-10.33,20.601-10.57v-1.382c0-4.324-3.243-6.426-7.087-6.426c-3.724,0-6.787,1.262-8.408,2.943L178.575,60.779z
			 M197.313,73.15c-8.288,0.181-15.435,1.382-15.435,6.486c0,3.063,3.604,4.024,6.786,4.024c3.363,0,6.306-1.562,8.648-3.483V73.15z
			"/>
		<path fill="#111111" d="M216.895,57.235l0.061,3.423h0.119c2.103-2.582,4.865-4.144,7.988-4.144c5.225,0,8.288,1.981,9.91,5.226
			h0.119c1.922-3.004,6.006-5.226,9.79-5.226c7.147,0,12.012,5.646,12.012,13.032v17.718h-5.165V69.547
			c0-5.045-2.822-8.348-7.867-8.348c-2.703,0-5.766,1.682-6.907,4.204v21.861h-5.104v-20.9c0-3.063-2.883-5.165-7.388-5.165
			c-3.183,0-6.065,1.742-7.388,4.264v21.802h-5.164V57.235H216.895z"/>
		<path fill="#111111" d="M271.551,99.276h-5.165V65.223c0-2.402-1.261-3.303-2.583-3.303c-0.24,0-0.6,0.061-0.6,0.061l-0.602-4.564
			c0,0,0.541-0.181,1.562-0.181c2.402,0,5.345,1.081,6.006,3.903h0.119c2.523-3.002,6.307-4.624,10.631-4.624
			c8.348,0,15.135,6.727,15.135,15.735c0,8.048-5.465,14.294-12.553,15.495c-1.08,0.12-2.041,0.24-3.123,0.181
			c-3.482-0.121-6.365-1.441-8.708-3.664h-0.12V99.276z M271.551,78.436c2.042,3.004,5.225,4.865,8.828,4.865
			c5.706,0,10.391-4.685,10.391-11.051s-4.685-11.051-10.391-11.051c-3.604,0-6.846,1.742-8.828,4.685V78.436z"/>
	</g>
	<g>
		<path fill="#111111" d="M146.699,119.193h1.133v14.24h7.533v1.002h-8.666V119.193z"/>
		<path fill="#111111" d="M161.615,131.409c0.283,1.284,1.415,2.242,3.07,2.242c2.373,0,2.896-2.155,2.896-3.701v-10.757h1.132
			v10.757c0,1.96-0.719,4.747-4.027,4.747c-2.199,0-3.702-1.285-4.072-3.07L161.615,131.409z"/>
		<path fill="#111111" d="M178.228,119.193v9.472c0,2.091,0.937,4.986,4.529,4.986s4.529-2.896,4.529-4.986v-9.472h1.132v9.472
			c0,2.526-1.132,6.032-5.661,6.032s-5.661-3.506-5.661-6.032v-9.472H178.228z"/>
		<path fill="#111111" d="M203.377,126.271c2.482,0.392,3.919,1.938,3.919,4.137c0,2.896-2.853,4.028-6.118,4.028h-4.203v-15.242
			h3.92c2.918,0,5.334,1.002,5.334,3.637c0,1.851-1.219,3.092-2.852,3.396V126.271z M198.107,125.878h3.418
			c1.59,0,3.55-0.806,3.55-3.048c0-1.895-1.895-2.635-4.181-2.635h-2.787V125.878z M198.107,133.434h3.07
			c2.656,0,4.965-0.871,4.965-3.026c0-2.308-1.742-3.527-4.573-3.527h-3.462V133.434z"/>
		<path fill="#111111" d="M214.873,119.193h1.133v14.24h7.533v1.002h-8.666V119.193z"/>
		<path fill="#111111" d="M229.788,131.409c0.283,1.284,1.415,2.242,3.07,2.242c2.374,0,2.896-2.155,2.896-3.701v-10.757h1.133
			v10.757c0,1.96-0.719,4.747-4.028,4.747c-2.199,0-3.702-1.285-4.071-3.07L229.788,131.409z"/>
		<path fill="#111111" d="M244.551,134.436h-1.197l6.598-15.242h1.197l6.532,15.242h-1.198l-1.785-4.225h-8.34L244.551,134.436z
			 M250.539,120.565l-3.746,8.645h7.447l-3.658-8.645H250.539z"/>
		<path fill="#111111" d="M275.47,133.107v-13.914h1.132v15.242h-1.545l-9.407-13.892h-0.044v13.892h-1.132v-15.242h1.524
			l9.428,13.914H275.47z"/>
		<path fill="#111111" d="M284.549,134.436h-1.197l6.598-15.242h1.197l6.533,15.242h-1.198l-1.785-4.225h-8.34L284.549,134.436z
			 M290.537,120.565l-3.745,8.645h7.446l-3.658-8.645H290.537z"/>
	</g>
</g>
</svg>
