<?xml version="1.0" encoding="UTF-8" standalone="no"?>
<svg width="400px" height="254px" viewBox="0 0 400 254" version="1.1" xmlns="http://www.w3.org/2000/svg" xmlns:xlink="http://www.w3.org/1999/xlink" xmlns:sketch="http://www.bohemiancoding.com/sketch/ns">
    <!-- Generator: Sketch 3.0.4 (8054) - http://www.bohemiancoding.com/sketch -->
    <title>Logo</title>
    <desc>Created with Sketch.</desc>
    <defs></defs>
    <g id="Page-1" stroke="none" stroke-width="1" fill="none" fill-rule="evenodd" sketch:type="MSPage">
        <g id="Artboard-1" sketch:type="MSArtboardGroup" transform="translate(-9.000000, -127.000000)">
            <g id="Logo" sketch:type="MSLayerGroup" transform="translate(12.000000, 128.000000)">
                <g id="top-gray-02" transform="translate(241.947494, 45.473684)" stroke="#979797" stroke-width="2" sketch:type="MSShapeGroup">
                    <path d="M-6.29567997e-16,58.7368421 L15.8766181,42.8222417" id="top-gray-right-2"></path>
                    <g id="top-gray-right-1" transform="translate(14.176611, 0.000000)">
                        <ellipse id="Empty-Joint-3" cx="3.78042959" cy="3.78947368" rx="3.78042959" ry="3.78947368"></ellipse>
                        <ellipse id="Empty-Joint-2" fill="#979797" cx="3.78042959" cy="40.7368421" rx="2.8353222" ry="2.84210526"></ellipse>
                        <path d="M3.85369209,37.7636119 L3.85369208,7.57894737" id="Leg-3"></path>
                    </g>
                </g>
                <g id="top-gray01" transform="translate(184.768496, 69.631579) scale(-1, 1) translate(-184.768496, -69.631579) translate(168.229117, 35.052632)" stroke="#979797" sketch:type="MSShapeGroup">
                    <path d="M25.6320299,62.4274554 L5.8256519,62.4274554 L0.462863054,69.0801807" id="top-gray-left-2" stroke-width="3"></path>
                    <g id="top-gray-left-1" transform="translate(25.517900, 0.000000)">
                        <ellipse id="Empty-Joint-7" stroke-width="2" fill="#979797" cx="3.78042959" cy="3.78947368" rx="3.78042959" ry="3.78947368"></ellipse>
                        <ellipse id="Empty-Joint-6" stroke-width="2" cx="3.78042959" cy="62.5263158" rx="3.78042959" ry="3.78947368"></ellipse>
                        <path d="M3.90041393,59.1000352 L3.90041393,7.26474206" id="Path-92" stroke-width="3"></path>
                    </g>
                </g>
                <g id="bottom-gray02" transform="translate(252.816229, 192.315789) scale(1, -1) translate(-252.816229, -192.315789) translate(241.947494, 154.421053)" stroke="#9B9B9B" stroke-width="2" sketch:type="MSShapeGroup">
                    <path d="M-6.29567997e-16,76.1933579 L-6.29567997e-16,58.7368421 L15.8766181,42.8222417" id="bottom-gray-right-2"></path>
                    <g id="bottom-gray-right-1" transform="translate(14.176611, 0.000000)">
                        <ellipse id="Empty-Joint-3" cx="3.78042959" cy="3.78947368" rx="3.78042959" ry="3.78947368"></ellipse>
                        <ellipse id="Empty-Joint-2" fill="#9B9B9B" cx="3.78042959" cy="40.7368421" rx="2.8353222" ry="2.84210526"></ellipse>
                        <path d="M3.85369209,37.7636119 L3.85369208,7.57894737" id="Leg-3"></path>
                    </g>
                </g>
                <g id="bottom-gray01" transform="translate(141.766110, 191.842105) scale(1, -1) translate(-141.766110, -191.842105) translate(126.644391, 155.368421)" stroke="#979797" stroke-width="2" sketch:type="MSShapeGroup">
                    <path d="M6.70753838,43.6519124 L30.4992176,73.3522199" id="bottom-gray-left-2"></path>
                    <g id="bottom-gray-left-1">
                        <ellipse id="Empty-Joint" fill="#979797" cx="4.72553699" cy="40.7368421" rx="3.78042959" ry="3.78947368"></ellipse>
                        <path d="M4.50818451,36.9473684 L4.50818452,8.20440669" id="Leg-2"></path>
                        <ellipse id="Empty-Joint-7" cx="4.25298329" cy="4.26315789" rx="4.25298329" ry="4.26315789"></ellipse>
                    </g>
                </g>
                <g id="left-gray" transform="translate(75.136038, 123.631579) rotate(-90.000000) translate(-75.136038, -123.631579) translate(53.871122, 48.315789)" stroke="#979797" sketch:type="MSShapeGroup">
                    <path d="M0.182899608,150.158332 L22.5427679,127.744972 L22.5427679,71.2311013 L39.0279563,54.7064747 L39.0279563,7.96127717" id="Path-102" stroke-width="3"></path>
                    <ellipse id="Oval-24" stroke-width="2" cx="38.7494033" cy="3.78947368" rx="3.78042959" ry="3.78947368"></ellipse>
                </g>
                <g id="design" transform="translate(96.400955, 183.315789) scale(-1, -1) translate(-96.400955, -183.315789) translate(28.353222, 141.157895)" sketch:type="MSShapeGroup">
                    <path d="M70.0520777,55.7958764 L50.2456996,55.7958764 L-0.201496136,84.3506858" id="design-leg" stroke="#70A29E" stroke-width="3"></path>
                    <g id="design-head" transform="translate(69.937947, 0.000000)">
                        <ellipse id="Empty-Joint-6" stroke="#70A29E" stroke-width="2" cx="3.78042959" cy="55.8947368" rx="3.78042959" ry="3.78947368"></ellipse>
                        <path d="M6.73573613,53.4158247 L36.3866348,27.9473684" id="Path-92" stroke="#70A29E" stroke-width="3"></path>
                        <path d="M42.1930209,23.4769092 L42.6729725,22.9958094 L40.7083894,21.0265263 L42.239197,19.4920565 L44.2128754,21.4704566 L44.6613433,21.0209158 L42.6876649,19.0418144 L44.1988827,17.5276826 L48.6877592,22.027298 L43.2221882,27.4736842 L38.7494033,22.9901989 L40.2284378,21.5069248 L42.1930209,23.4769092 L42.1930209,23.4769092 Z M54.1155497,16.5872236 L49.6266732,12.0869069 L51.1371914,10.572775 L53.1115694,12.5511752 L53.5600373,12.1016344 L51.5863589,10.1232343 L53.1171665,8.5887644 L55.08105,10.5580475 L55.5610016,10.0769477 L53.5971181,8.10766462 L55.0754529,6.62509181 L59.5489374,11.1092784 L54.1155497,16.5872236 L54.1155497,16.5872236 Z M58.8192151,22.3435896 C59.3656323,22.8920153 59.3698301,23.7777719 58.8276108,24.3219897 L56.3704826,26.7842949 C55.8282632,27.3278114 54.943921,27.3250061 54.3975038,26.7758791 L52.8792896,25.2540329 L57.3010009,20.8217433 L58.8192151,22.3435896 L58.8192151,22.3435896 Z M40.3319842,10.0769477 L42.1671343,8.23740727 L45.8640208,9.55376922 L41.6452045,13.7826784 L40.3319842,10.0769477 L40.3319842,10.0769477 Z M52.4021366,24.8037908 L41.988027,14.3640657 L46.4440206,9.89741192 L56.8588298,20.337137 L52.4021366,24.8037908 L52.4021366,24.8037908 Z M44.0113797,14.3731828 L52.393741,22.7755975 L52.8820882,22.286082 L44.4990273,13.882966 L44.0113797,14.3731828 L44.0113797,14.3731828 Z M44.9880742,13.3934504 L53.3697358,21.7958652 L53.858083,21.3063497 L45.4757218,12.9046362 L44.9880742,13.3934504 L44.9880742,13.3934504 Z M45.9647686,12.4151207 L54.3471299,20.8175354 L54.8347775,20.3280199 L46.4531159,11.9256052 L45.9647686,12.4151207 L45.9647686,12.4151207 Z M39.3217071,7.22401195 L41.4667968,8.00737705 L40.1032026,9.37423344 L39.3217071,7.22401195 L39.3217071,7.22401195 Z" id="Design" fill="#70A29E"></path>
                        <ellipse id="World-Circle" stroke="#70A29E" stroke-width="2" cx="49.1455847" cy="17.0526316" rx="17.0119332" ry="17.0526316"></ellipse>
                    </g>
                </g>
                <g id="robot" transform="translate(196.582339, 204.157895) scale(1, -1) translate(-196.582339, -204.157895) translate(175.789976, 156.789474)" sketch:type="MSShapeGroup">
                    <path d="M17.4844869,94.7368421 L5.63863233,61.5783474" id="robot-leg" stroke="#5D8AB5" stroke-width="2"></path>
                    <g id="robot-head">
                        <ellipse id="World-Circle" stroke="#5D8AB5" stroke-width="2" cx="24.5727924" cy="17.0526316" rx="17.0119332" ry="17.0526316"></ellipse>
                        <path d="M34.49642,21.3157895 L33.7875895,21.3157895 L33.7875895,19.2637895 C33.7875895,15.4070526 30.7197709,11.8238684 26.7751289,10.7303684 C26.9537542,10.3850526 27.0529905,9.99639474 27.0529905,9.59210526 C27.0529905,8.22078947 25.9401265,7.10526316 24.5720835,7.10526316 C23.2040406,7.10526316 22.0911766,8.22078947 22.0911766,9.59210526 C22.0911766,9.99710526 22.1904129,10.3857632 22.3690382,10.7303684 C18.425105,11.8245789 15.3579952,15.4077632 15.3579952,19.2637895 L15.3579952,21.3157895 L14.6491647,21.3157895 C13.8666158,21.3157895 13.2315036,21.9524211 13.2315036,22.7368421 L13.2315036,28.4210526 C13.2315036,29.2054737 13.8666158,29.8421053 14.6491647,29.8421053 L34.49642,29.8421053 C35.278969,29.8421053 35.9140811,29.2054737 35.9140811,28.4210526 L35.9140811,22.7368421 C35.9140811,21.9524211 35.278969,21.3157895 34.49642,21.3157895 L34.49642,21.3157895 Z M16.7756563,19.2637895 C16.7756563,15.7445526 20.1262983,12.1713158 24.2183771,11.8366579 L24.2183771,10.5925263 C23.8058377,10.4461579 23.5088377,10.0560789 23.5088377,9.59210526 C23.5088377,9.00307895 23.9851718,8.52631579 24.5720835,8.52631579 C25.1589952,8.52631579 25.6353294,9.00307895 25.6353294,9.59210526 C25.6353294,10.0553684 25.3390382,10.4454474 24.9272076,10.5925263 L24.9272076,11.8366579 C29.0192864,12.1713158 32.3699284,15.7445526 32.3699284,19.2637895 L32.3699284,22.0263158 L16.7756563,22.0263158 L16.7756563,19.2637895 L16.7756563,19.2637895 Z M34.49642,28.4210526 L14.6491647,28.4210526 L14.6491647,22.7368421 L34.49642,22.7368421 L34.49642,28.4210526 Z M27.6044606,16.4103158 C26.690778,16.4103158 25.9507589,17.1521053 25.9507589,18.0679737 C25.9507589,18.9838421 26.690778,19.7263421 27.6044606,19.7263421 C28.5181432,19.7263421 29.2588711,18.9831316 29.2588711,18.0679737 C29.2588711,17.1521053 28.5181432,16.4103158 27.6044606,16.4103158 Z M21.5411241,16.4103158 C20.6267327,16.4103158 19.8867136,17.1521053 19.8867136,18.0679737 C19.8867136,18.9838421 20.6267327,19.7263421 21.5411241,19.7263421 C22.453389,19.7263421 23.1948258,18.9831316 23.1948258,18.0679737 C23.1948258,17.1521053 22.453389,16.4103158 21.5411241,16.4103158 Z" id="Shape" fill="#5D8AB5" transform="translate(24.572792, 18.473684) scale(1, -1) translate(-24.572792, -18.473684) "></path>
                        <ellipse id="Empty-Joint-5" stroke="#5D8AB5" stroke-width="2" cx="3.78042959" cy="57.7894737" rx="3.78042959" ry="3.78947368"></ellipse>
                        <path d="M16.884887,54.9511528 L5.67064439,32.6842105" id="Path-88" stroke="#5D8AB5" stroke-width="2" transform="translate(11.341289, 44.052632) scale(-1, 1) translate(-11.341289, -44.052632) "></path>
                    </g>
                </g>
                <g id="performance" transform="translate(340.711217, 181.421053) scale(1, -1) translate(-340.711217, -181.421053) translate(285.422434, 156.315789)" sketch:type="MSShapeGroup">
                    <path d="M28.4673521,41.5853501 L8.66097409,41.5853501 L0.445018629,50.1288546" id="performance-compound" stroke="#E05E30" stroke-width="2"></path>
                    <g id="performance-middle" transform="translate(28.353222, 17.052632)" stroke="#E05E30" stroke-width="2">
                        <ellipse id="Empty-Joint-4" cx="2.8353222" cy="24.6315789" rx="2.8353222" ry="2.84210526"></ellipse>
                        <path d="M3.01300532,-0.0428949637 L3.01300532,21.9603159" id="Path-105"></path>
                    </g>
                    <g id="performance-head" transform="translate(29.298329, 0.000000)">
                        <ellipse id="joint-filled" stroke="#E05E30" stroke-width="2" fill="#E05E30" cx="1.8902148" cy="17.0526316" rx="1.8902148" ry="1.89473684"></ellipse>
                        <path d="M47.2459676,17.2839187 L2.06711914,17.2839187" id="Path-104" stroke="#E05E30" stroke-width="2"></path>
                        <ellipse id="watch-circle" stroke="#E05E30" stroke-width="2" cx="64.2673031" cy="17.0526316" rx="17.0119332" ry="17.0526316"></ellipse>
                        <path d="M64.9943088,9.97427961 L64.9943088,8.52631579 L67.9023316,8.52631579 L67.9023316,7.10526316 C67.9023316,6.32044243 67.2513434,5.68421053 66.4482747,5.68421053 L62.086286,5.68421053 C61.2832628,5.68421053 60.6322746,6.32044243 60.6322746,7.10526316 L60.6322746,8.52631579 L63.5402974,8.52631579 L63.5402974,9.97427961 C58.6603171,10.3370477 54.8162291,14.3218569 54.8162291,19.1842105 C54.8162291,24.2855674 59.0476294,28.4210526 64.2673031,28.4210526 C69.4869768,28.4210526 73.7183771,24.2855674 73.7183771,19.1842105 C73.7183771,14.3219013 69.8742891,10.3370921 64.9943088,9.97427961 L64.9943088,9.97427961 Z M69.4080058,24.2083865 C68.0348283,25.5503931 66.2092262,26.2894737 64.2673031,26.2894737 C62.32538,26.2894737 60.4997324,25.5503931 59.1266004,24.2083865 C57.7534684,22.8663799 56.9972462,21.0820707 56.9972462,19.1842105 C56.9972462,17.2863503 57.7534684,15.5020411 59.1266004,14.1600345 C60.445207,12.8713618 62.1811148,12.1390757 64.0364788,12.0828997 L63.5439779,19.0553832 C63.5017207,19.639125 63.8271466,19.8947368 64.2672577,19.8947368 C64.7073687,19.8947368 65.0328401,19.639125 64.9905375,19.0553832 L64.498082,12.0828553 C66.3534459,12.1390757 68.0893992,12.8713618 69.4080058,14.1600345 C70.7811378,15.5020411 71.53736,17.2863503 71.53736,19.1842105 C71.53736,21.0820707 70.7811378,22.8663799 69.4080058,24.2083865 L69.4080058,24.2083865 Z" id="watch" fill="#E05E30" transform="translate(64.267303, 17.052632) scale(1, -1) translate(-64.267303, -17.052632) "></path>
                    </g>
                </g>
                <g id="server" transform="translate(234.386635, 59.684211)" sketch:type="MSShapeGroup">
                    <path d="M68.3931568,48.216929 L26.6180147,48.216929 L0.065321198,74.8331457" id="leg-compound" stroke="#70A29E" stroke-width="3"></path>
                    <g id="leg-middle" transform="translate(68.992840, 17.052632)" stroke="#70A29E" stroke-width="2">
                        <ellipse id="joint-empty" cx="3.78042959" cy="31.2631579" rx="3.78042959" ry="3.78947368"></ellipse>
                        <path d="M4.03060238,27.3300481 L4.03060238,-0.153389003" id="leg-vertical"></path>
                    </g>
                    <g id="server-head" transform="translate(68.992840, 0.000000)">
                        <path d="M63.4994033,12.2763294 C64.0971838,12.2763294 64.5823524,11.79 64.5823524,11.1907895 C64.5823524,10.5915789 64.0971838,10.1052496 63.4994033,10.1052496 C62.9016229,10.1052496 62.4164542,10.5915789 62.4164542,11.1907895 C62.4164542,11.79 62.9016229,12.2763294 63.4994033,12.2763294 Z M62.4164542,18.1381715 C62.4164542,18.737382 62.9016229,19.2237113 63.4994033,19.2237113 C64.0971838,19.2237113 64.5823524,18.737382 64.5823524,18.1381715 C64.5823524,17.5389609 64.0971838,17.0526316 63.4994033,17.0526316 C62.9016229,17.0526316 62.4164542,17.5389609 62.4164542,18.1381715 L62.4164542,18.1381715 Z M47.2553699,20.9605263 C47.2553699,21.920118 48.0307383,22.697382 48.9880804,22.697382 L56.3520286,22.697382 L56.3520286,23.895803 C56.1397597,24.0390925 55.9578266,24.2214609 55.8148791,24.4342377 L50.5041766,24.434197 C49.9063962,24.434197 49.4212275,24.9205263 49.4212275,25.5197368 C49.4212275,26.1189474 49.9063962,26.6052767 50.5041766,26.6052767 L55.8148791,26.6052767 C56.1657502,27.130685 56.7591853,27.4736842 57.4349371,27.4736842 C58.1106889,27.4736842 58.7041241,27.1306443 59.0549952,26.6052767 L64.798926,26.6052767 C65.3967064,26.6052767 65.8818751,26.1189474 65.8818751,25.5197368 C65.8818751,24.9205263 65.3967064,24.434197 64.798926,24.434197 L59.0550358,24.434197 C58.9120883,24.2214202 58.7301551,24.0390518 58.5178862,23.8957623 L58.5178862,22.697382 L66.3150223,22.697382 C67.2723238,22.697382 68.0477327,21.9201587 68.0477327,20.9605263 L68.0477327,8.36843462 C68.0477327,7.40884293 67.2723644,6.63157895 66.3150223,6.63157895 L48.9880804,6.63157895 C48.0307383,6.63157895 47.2553699,7.40880222 47.2553699,8.36843462 L47.2553699,20.9605263 L47.2553699,20.9605263 Z M50.3742243,8.80261801 L64.9288783,8.80261801 C65.4573373,8.80261801 65.8818751,9.22817146 65.8818751,9.75789474 L65.8818751,12.6236842 C65.8818751,13.1534075 65.4573779,13.5789609 64.9288783,13.5789609 L50.3742243,13.5789609 C49.8457653,13.5789609 49.4212275,13.1534075 49.4212275,12.6236842 L49.4212275,9.75789474 C49.4212275,9.22817146 49.8457653,8.80261801 50.3742243,8.80261801 L50.3742243,8.80261801 Z M50.3742243,15.75 L64.9288783,15.75 C65.4573373,15.75 65.8818751,16.1755127 65.8818751,16.7052767 L65.8818751,19.5710662 C65.8818751,20.1007895 65.4573779,20.5263429 64.9288783,20.5263429 L50.3742243,20.5263022 C49.8457653,20.5263022 49.4212275,20.1007895 49.4212275,19.5710662 L49.4212275,16.7052767 C49.4212275,16.1755127 49.8457653,15.75 50.3742243,15.75 L50.3742243,15.75 Z" id="Server" fill="#70A29E"></path>
                        <ellipse id="World-Circle" stroke="#70A29E" stroke-width="2" cx="57.6515513" cy="17.0526316" rx="17.0119332" ry="17.0526316"></ellipse>
                        <path d="M40.6667221,16.9560697 L3.91806676,16.9560697" id="leg-horizontal" stroke="#70A29E" stroke-width="2"></path>
                        <ellipse id="joint-filled" stroke="#70A29E" stroke-width="2" fill="#70A29E" cx="3.78042959" cy="17.0526316" rx="3.78042959" ry="3.78947368"></ellipse>
                    </g>
                </g>
                <g id="globe" transform="translate(198.472554, 0.000000)" sketch:type="MSShapeGroup">
                    <path d="M17.1037198,71.1255966 L17.1037198,108.192538" id="globe-leg" stroke="#4E7EAE" stroke-width="2"></path>
                    <g id="globe-head">
                        <ellipse id="World-Circle" stroke="#4E7EAE" stroke-width="2" cx="17.0119332" cy="17.0526316" rx="17.0119332" ry="17.0526316"></ellipse>
                        <path d="M5.67064439,17.0526316 C5.67064439,23.3336842 10.7458711,28.4210526 17.0119332,28.4210526 C23.2779952,28.4210526 28.353222,23.3336842 28.353222,17.0526316 C28.353222,10.7715789 23.2779952,5.68421053 17.0119332,5.68421053 C10.7458711,5.68421053 5.67064439,10.7715789 5.67064439,17.0526316 L5.67064439,17.0526316 Z M8.03339812,17.0526316 C8.03339812,16.3231431 8.11845779,15.6126168 8.28383681,14.9352632 L10.3961962,17.0526316 L9.92362768,19.8947368 L11.8138572,21.7894885 L11.8138572,24.3900148 C9.52668258,22.7605115 8.03339812,20.0799622 8.03339812,17.0526316 L8.03339812,17.0526316 Z M14.9468883,8.29419572 C15.6084487,8.1331727 16.2983623,8.05261678 17.0119332,8.05261678 C17.8010831,8.05261678 18.5666201,8.15684211 19.2943675,8.34628618 L18.9021627,9.0000148 L19.3747312,9.47371382 L20.7923923,9.47371382 L21.1845971,9.08057072 C21.5149121,9.25584868 21.8267976,9.44529276 22.1296897,9.65845066 L21.2649165,9.94736842 L20.3198238,10.894722 L21.2649165,11.3684211 L21.2649165,11.8421201 L20.3198238,11.8421201 L20.3198238,12.7894737 C20.3198238,12.7894737 20.9719479,13.2631727 21.7374849,13.2631727 C22.4888453,13.2631727 22.153347,12.2258043 22.6825776,11.8421201 C23.2165485,11.4584359 23.8639766,11.543699 23.8639766,11.543699 L24.1711217,11.6242105 C24.7476225,12.3868273 25.205527,13.2394589 25.5178998,14.1631431 L25.5178998,14.2105263 C25.5178998,14.2105263 24.851599,13.7368273 23.6276702,13.7368273 C22.4037413,13.7368273 21.2649165,14.2105263 21.2649165,14.2105263 C21.2649165,14.2105263 19.932315,14.5989622 19.8472554,15.6315789 C19.7003059,17.4078947 20.3198238,17.9999852 20.3198238,17.9999852 L22.6825776,19.4210378 L22.6825776,24.03 C21.137327,25.2947368 19.1620377,26.0526464 17.0119332,26.0526464 C15.9959575,26.0526464 15.0224673,25.8868717 14.1104682,25.5742401 L16.5393647,19.8947368 L16.0667962,17.5263306 C16.0667962,17.5263306 14.1907433,15.1579243 13.231474,15.1579243 C12.2722048,15.1579243 11.8138129,16.578977 11.8138129,16.578977 L10.8687203,14.6842253 L13.7040425,12.7894737 L15.1217036,9.0000148 L14.9468883,8.29419572 L14.9468883,8.29419572 Z" id="World" fill="#4E7EAE"></path>
                        <path d="M16.7945807,63.4736842 L16.7945807,34.7307225" id="Leg-2" stroke="#4E7EAE" stroke-width="2"></path>
                        <ellipse id="Empty-Joint" stroke="#4E7EAE" stroke-width="2" cx="17.0119332" cy="67.2631579" rx="3.78042959" ry="3.78947368"></ellipse>
                    </g>
                </g>
                <g id="mobile" transform="translate(133.260143, 92.842105) scale(-1, 1) translate(-133.260143, -92.842105) translate(72.773270, 51.157895)" sketch:type="MSShapeGroup">
                    <path d="M46.4243927,56.7432448 L26.6180147,56.7432448 L0.065321198,83.3594615" id="mobile-compound" stroke="#E05E30" stroke-width="2"></path>
                    <g id="mobile-middle" transform="translate(46.310263, 29.368421)" stroke="#E05E30" stroke-width="2">
                        <path d="M4.07412402,27.0533404 L4.07412405,0.473684211" id="Path-87"></path>
                        <ellipse id="Empty-Joint-4" fill="#E05E30" cx="3.78042959" cy="27.4736842" rx="3.78042959" ry="3.78947368"></ellipse>
                    </g>
                    <g id="mobile-head" transform="translate(46.310263, 0.000000)">
                        <path d="M40.512572,24.6353633 L7.56085919,19.8947368" id="Path-88" stroke="#E05E30" stroke-width="2" transform="translate(24.100239, 22.736842) scale(-1, 1) translate(-24.100239, -22.736842) "></path>
                        <ellipse id="Empty-Joint-5" stroke="#E05E30" stroke-width="2" cx="3.78042959" cy="25.5789474" rx="3.78042959" ry="3.78947368"></ellipse>
                        <ellipse id="World-Circle" stroke="#E05E30" stroke-width="2" cx="57.6515513" cy="17.0526316" rx="17.0119332" ry="17.0526316"></ellipse>
                        <path d="M62.9441527,5.68421053 L52.3589499,5.68421053 C51.1114081,5.68421053 50.0906921,6.64342105 50.0906921,7.81578947 L50.0906921,26.2894737 C50.0906921,27.4618421 51.1114081,28.4210526 52.3589499,28.4210526 L62.9441527,28.4210526 C64.1916945,28.4210526 65.2124105,27.4618421 65.2124105,26.2894737 L65.2124105,7.81578947 C65.2124105,6.64342105 64.1916945,5.68421053 62.9441527,5.68421053 L62.9441527,5.68421053 Z M54.6272076,6.75 L60.675895,6.75 L60.675895,7.46052632 L54.6272076,7.46052632 L54.6272076,6.75 L54.6272076,6.75 Z M57.6515513,27 C56.8164072,27 56.1393795,26.3637681 56.1393795,25.5789474 C56.1393795,24.7941266 56.8164072,24.1578947 57.6515513,24.1578947 C58.4866955,24.1578947 59.1637232,24.7941266 59.1637232,25.5789474 C59.1637232,26.3637681 58.4866955,27 57.6515513,27 L57.6515513,27 Z M63.7002387,22.7368421 L51.602864,22.7368421 L51.602864,8.52631579 L63.7002387,8.52631579 L63.7002387,22.7368421 L63.7002387,22.7368421 Z" id="mobile" fill="#E05E30"></path>
                    </g>
                </g>
                <g id="logo" transform="translate(68.047733, 83.368421)" sketch:type="MSShapeGroup">
                    <g id="JS-Sword" transform="translate(0.000000, 37.466548)">
                        <g id="Blade" transform="translate(79.815844, 16.057092)">
                            <path d="M9.06479945,-0.00936663693 L9.06479945,3.8543711 C8.61139179,3.39741302 7.95073123,3.10570919 7.20958411,3.10570919 C5.84332466,3.10570919 4.73797583,4.08586084 4.73797583,5.29750223 C4.73797583,4.08586084 3.63061483,3.10570919 2.26435538,3.10570919 C0.898095927,3.10570919 -0.217984448,4.08586084 -0.217984448,5.29750223 L-0.217984448,16.5093666 C-0.217984448,17.720339 0.898095927,18.7018287 2.26435538,18.7018287 C3.63061483,18.7018287 4.73797583,17.720339 4.73797583,16.5093666 C4.73797583,17.720339 5.84332466,18.7018287 7.20958411,18.7018287 C8.57584356,18.7018287 9.68253384,17.720339 9.68253384,16.5093666 C9.68253384,17.720339 10.7885534,18.7018287 12.1561543,18.7018287 C13.5210723,18.7018287 14.6284333,17.720339 14.6284333,16.5093666 L14.6284333,12.5285459 L189.51635,12.5860839 L190.220608,11.0011151 C187.097729,2.50490633 177.727751,-0.00936663693 177.727751,-0.00936663693 L9.06479945,-0.00936663693" id="Sword-Top" fill="#70A39E"></path>
                            <path d="M190.220608,10.9984389 C187.097729,19.4946476 177.727751,21.9212756 177.727751,21.9212756 L9.06479945,21.9212756 L9.06479945,10.9984389 L190.220608,10.9984389" id="Sword-Bottom" fill="#B8C6C2"></path>
                        </g>
                        <g id="Hilt">
                            <path d="M11.5558586,21.0040143 C15.1992172,21.0040143 18.1537449,23.6347012 18.1537449,26.8648528 C18.1537449,30.0950045 15.1992172,32.7149866 11.5558586,32.7149866 C7.91250012,32.7149866 4.94657017,30.0950045 4.94657017,26.8648528 C4.94657017,23.6347012 7.91250012,21.0040143 11.5558586,21.0040143 M11.5558586,17.0673506 C5.17998121,17.0673506 0.00067072138,21.5385816 0.00067072138,27.058207 C0.00067072138,32.5764942 5.17998121,37.0497324 11.5558586,37.0497324 C15.7210384,37.0497324 19.3610433,35.1376004 21.3906462,32.2774309 L21.3906462,32.5624442 C21.3906462,33.7734166 22.5027023,34.7602587 23.8689617,34.7602587 C24.9139456,34.7602587 25.8019808,34.1875558 26.1634996,33.3760036 C26.5256891,34.1888938 27.4130535,34.7602587 28.4587081,34.7602587 C29.5070457,34.7602587 30.4051416,34.1828724 30.7646482,33.3659679 C31.1248256,34.1828724 32.0222508,34.7602587 33.0719298,34.7602587 C34.1202673,34.7602587 35.0062902,34.1828724 35.3657969,33.3659679 C35.726645,34.1828724 36.6247409,34.7602587 37.6730785,34.7602587 C39.0386672,34.7602587 40.1399917,33.7734166 40.1399917,32.5624442 L40.1399917,21.3505798 C40.1399917,20.1389384 39.0386672,19.1628011 37.6730785,19.1628011 C36.6247409,19.1628011 35.726645,19.7408564 35.3657969,20.5557538 C35.0062902,19.7408564 34.1202673,19.1628011 33.0719298,19.1628011 C32.0222508,19.1628011 31.1248256,19.7408564 30.7646482,20.5557538 C30.4051416,19.7408564 29.5070457,19.1628011 28.4587081,19.1628011 C27.4130535,19.1628011 26.5256891,19.7341659 26.1634996,20.5470562 C25.8019808,19.7341659 24.9139456,19.1628011 23.8689617,19.1628011 C22.5027023,19.1628011 21.3906462,20.1389384 21.3906462,21.3505798 L21.3906462,21.8389831 C19.3610433,18.9774755 15.7210384,17.0673506 11.5558586,17.0673506" id="Grip" fill="#70A39E"></path>
                            <path d="M94.3745224,31.4812667 C93.588437,31.8211418 92.9136913,32.3898305 92.3502853,33.190678 C91.7875501,33.9915254 91.3891416,34.9937556 91.1557305,36.1987065 C90.9853673,37.103256 90.9015271,38.6661463 90.9015271,40.8873773 C90.9015271,44.5410348 90.7143959,47.0914362 90.343487,48.5419269 C89.9732487,49.9910794 89.2877715,51.1545495 88.2897381,52.0309991 C87.2917047,52.9067797 85.8255077,53.5979037 83.891818,54.1063782 C82.5973257,54.4449153 80.5590035,54.6135147 77.7768512,54.6135147 L76.0879747,54.6135147 L76.0879747,47.8354148 C78.3610495,47.8354148 79.8480388,47.7096343 80.5476012,47.4547279 C81.2498465,47.2004906 81.7629483,46.8331847 82.093614,46.353479 C82.4222675,45.8724353 82.5926307,45.0568689 82.6026915,43.9101249 C82.6134231,42.7613738 82.7039704,40.5682426 82.8743337,37.3280553 C82.9803076,35.3704282 83.266035,33.8021855 83.7335278,32.6260036 C84.1996791,31.4491525 84.8221086,30.4516057 85.5974625,29.632694 C86.3728164,28.8131133 87.3661547,28.0932203 88.5768068,27.471008 C87.0046359,26.5671276 85.8570316,25.6819804 85.1353354,24.8155665 C84.1366313,23.573149 83.4571905,21.9921945 83.0970132,20.0700268 C82.8636021,18.7526762 82.6932389,15.853033 82.5872649,11.3724353 C82.5664726,9.95941124 82.4222675,9.01806423 82.1573325,8.5470562 C81.8917268,8.07671722 81.4135025,7.71342551 80.7233302,7.45918822 C80.0338286,7.20495094 78.4884866,7.07850134 76.0879747,7.07850134 L76.0879747,0.327832293 L77.7768512,0.327832293 C80.6441851,0.327832293 82.8428098,0.525869759 84.3713838,0.921275647 C85.8999578,1.31601249 87.18506,1.9897413 88.2253488,2.93978591 C89.2669791,3.8911686 89.9732487,5.05865299 90.343487,6.44357716 C90.7157373,7.82716325 90.9015271,10.0069135 90.9015271,12.9821588 C90.9015271,16.426405 91.0604881,18.6784121 91.3797515,19.7314897 C91.8465736,21.2381802 92.5575382,22.3160125 93.5139869,22.9656557 C94.4690942,23.6166369 95.9245596,23.9872881 97.8790417,24.0816236 L97.8790417,30.8597235 C96.3276631,30.9366637 95.1606079,31.1433988 94.3745224,31.4812667 Z" id="Cross-guard" fill="#D3492B"></path>
                            <path d="M58.0341674,38.8293934 C59.5204859,39.661686 62.336845,40.632471 64.9177809,40.632471 C67.5778619,40.632471 69.0641805,39.5914362 69.0641805,37.5816236 C69.0641805,35.8474576 67.9688924,34.7381802 64.6052247,33.0040143 C58.4251979,29.882248 56.8610757,26.3463426 56.8610757,23.2245763 C56.8610757,17.1215433 61.7888657,12.4750223 69.4558817,12.4750223 C72.6626007,12.4750223 75.1643914,13.1688225 77.1993601,14.0706958 L75.3991439,20.7283675 C73.913496,19.9649866 72.115292,19.3407672 70.0803234,19.3407672 C67.4215838,19.3407672 66.2478214,20.7283675 66.2478214,22.2544603 C66.2478214,23.7103033 67.1083569,24.6121766 70.7067771,26.484835 C76.3381538,29.3282783 78.4502554,32.8655219 78.4502554,36.7486619 C78.4502554,43.6839875 72.818208,47.4286351 64.9177809,47.4286351 C61.711062,47.4286351 57.9563637,46.6659233 56.2352926,45.4870651 L58.0341674,38.8293934" id="S" fill="#D7692C"></path>
                            <path d="M50.7340359,49.5575379 C48.6702262,52.2270294 45.3387531,54.3398751 41.6906995,55.5347904 L38.1184374,51.8075379 C40.8945532,50.5457181 43.2762849,48.5044603 44.3823044,46.6043711 C45.3394238,44.9150312 45.7358202,42.7366191 45.7358202,37.5280999 L45.7358202,1.74754683 L53.4236286,1.74754683 L53.4236286,37.0376896 C53.4222872,44.0011151 52.794492,46.8131133 50.7340359,49.5575379" id="J" fill="#D7692C"></path>
                        </g>
                    </g>
                    <g id="HTML5" transform="translate(115.364077, 0.000000)">
                        <path d="M32.5688888,85.1815343 L5.91911618,78.3211418 L-0.0174387559,16.5535236 L65.2350321,16.5535236 L59.2897578,78.3124442 L32.5688888,85.1815343" id="Fill-11" fill="#D3492B"></path>
                        <path d="M54.1996532,74.3804639 L59.2810384,21.603479 L32.609132,21.603479 L32.609132,79.9295272 L54.1996532,74.3804639" id="Fill-12" fill="#E15E30"></path>
                        <path d="M32.609132,52.088537 L32.609132,44.5136039 L21.7977741,44.5136039 L21.0512612,36.7553524 L32.609132,36.7553524 L32.609132,29.1790812 L12.1232889,29.1790812 L12.3198103,31.2123104 L14.3266087,52.088537 L32.609132,52.088537" id="Fill-13" fill="#ECECE9"></path>
                        <path d="M23.4745776,61.9181534 L22.8930621,55.8753345 L14.6921518,55.8753345 L15.8370732,67.7696253 L32.5715716,72.0789474 L32.609132,72.0682426 L32.609132,64.1862177 L32.5715716,64.1969224 L23.4745776,61.9181534" id="Fill-14" fill="#ECECE9"></path>
                        <path d="M6.05258973,-0.232158787 L10.2030136,-0.232158787 L10.2030136,3.5720339 L14.0006381,3.5720339 L14.0006381,-0.232158787 L18.1517327,-0.232158787 L18.1517327,11.2854594 L14.0006381,11.2854594 L14.0006381,7.42841213 L10.2030136,7.42841213 L10.2030136,11.2854594 L6.05124829,11.2854594 L6.05258973,-0.232158787" id="Fill-15" fill="#0A0B09"></path>
                        <path d="M23.6120754,3.58742194 L19.9586561,3.58742194 L19.9586561,-0.232158787 L31.4212845,-0.232158787 L31.4212845,3.58742194 L27.7638408,3.58742194 L27.7638408,11.2854594 L23.6120754,11.2854594 L23.6120754,3.58742194" id="Fill-16" fill="#0A0B09"></path>
                        <path d="M33.2396101,-0.232158787 L37.5691166,-0.232158787 L40.2318805,3.81489741 L42.8899493,-0.232158787 L47.2207973,-0.232158787 L47.2207973,11.2854594 L43.0864707,11.2854594 L43.0864707,5.57716325 L40.2305391,9.67239072 L40.1601133,9.67239072 L37.3028402,5.57716325 L37.3028402,11.2854594 L33.2396101,11.2854594 L33.2396101,-0.232158787" id="Fill-17" fill="#0A0B09"></path>
                        <path d="M49.2852777,-0.232158787 L53.4397259,-0.232158787 L53.4397259,7.47859054 L59.2770141,7.47859054 L59.2770141,11.2854594 L49.2879606,11.2854594 L49.2879606,-0.232158787 L49.2852777,-0.232158787" id="Fill-18" fill="#0A0B09"></path>
                        <path d="M49.4496044,66.4904103 L51.3685383,46.5475022 L51.5677426,44.5136039 L32.5789496,44.5136039 L32.5789496,52.088537 L42.6384288,52.088537 L41.6900288,61.9128011 L32.5789496,64.1929081 L32.5789496,72.0762712 L49.3261917,67.7696253 L49.4496044,66.4904103" id="Fill-19" fill="#FFFFFF"></path>
                        <path d="M53.0426589,29.1790812 L32.5789496,29.1790812 L32.5789496,36.7553524 L52.3115726,36.7553524 L52.4752286,35.0526316 L52.8474789,31.2123104 L53.0426589,29.1790812" id="Fill-20" fill="#FFFFFF"></path>
                    </g>
                    <g id="CSS3" transform="translate(170.363230, 39.248885)">
                        <path d="M43.259029,35.1188671 L27.2831165,44.4085638 L9.92149357,40.324041 L2.8353222,11.8267172 L40.5084006,5.68421053 L43.259029,35.1188671" id="Fill-23" fill="#4072A8" transform="translate(23.047176, 25.046387) rotate(9.000000) translate(-23.047176, -25.046387) "></path>
                        <path d="M26.6759307,41.2285905 L39.8683495,33.2194469 L37.7019195,9.45829616 L21.8930166,12.0367975 L26.6759307,41.2285905" id="Fill-24" fill="#5D8AB6" transform="translate(30.880683, 25.343443) rotate(9.000000) translate(-30.880683, -25.343443) "></path>
                        <path d="M37.2397924,31.926851 L26.2734979,38.7671722 L14.0677102,35.9344335 L12.9563249,31.5073595 L17.0973587,30.8751115 L17.4796699,32.1630241 L25.4666201,33.8463426 L32.6533996,29.573818 L32.469622,25.2972792 L12.22658,28.5976806 L11.2144615,24.558653 L31.8954845,21.0849688 L31.4695764,16.7328278 L10.1346,20.2580285 L9.08626253,16.0764942 L35.3222,11.7986173 L37.2397924,31.926851" id="Fill-25" fill="#FFFFFF" transform="translate(23.163027, 25.282895) rotate(9.000000) translate(-23.163027, -25.282895) "></path>
                        <path d="M20.7596716,2.13342928 L19.0978885,2.43410773 C19.0418955,2.10135524 18.9149134,1.85079237 18.7169382,1.6824116 C18.5189631,1.51403082 18.2619992,1.42984169 17.9460389,1.42984169 C17.5260916,1.42984169 17.1911387,1.57516816 16.94117,1.86582545 C16.6912014,2.15648274 16.566219,2.64257472 16.566219,3.32411595 C16.566219,4.08182945 16.6932011,4.61703174 16.9471692,4.9297389 C17.2011374,5.24244605 17.5420894,5.39879729 17.9700357,5.39879729 C18.2899956,5.39879729 18.5519587,5.3075924 18.7559331,5.12517989 C18.9599075,4.94276739 19.1038873,4.62906267 19.1878768,4.18405633 L20.8436606,4.46669408 C20.6716822,5.22841664 20.3417286,5.80370899 19.8537898,6.1925884 C19.3658511,6.58146782 18.711943,6.77590461 17.8920459,6.77590461 C16.9601629,6.77590461 16.2172673,6.48124267 15.6633368,5.89190995 C15.1094064,5.30257723 14.8324453,4.48674452 14.8324453,3.44438734 C14.8324453,2.39000295 15.1104062,1.56915898 15.6663364,0.981830798 C16.2222667,0.394502614 16.974161,0.100842928 17.922042,0.100842928 C18.6979446,0.100842928 19.3148579,0.268218927 19.7728004,0.602975946 C20.2307429,0.937732965 20.5596967,1.44787897 20.7596716,2.13342928 L20.7596716,2.13342928 Z M21.4439946,4.80946752 L23.1357738,4.55088405 C23.2077647,4.87962747 23.3537442,5.12918809 23.5737166,5.2995734 C23.793689,5.46995871 24.1016457,5.55515008 24.497596,5.55515008 C24.9335413,5.55515008 25.2614952,5.47496996 25.4814676,5.31460732 C25.629449,5.20235347 25.7034386,5.05201574 25.7034386,4.86358964 C25.7034386,4.73529952 25.6634442,4.62906087 25.5834543,4.54487048 C25.4994648,4.46468916 25.3114912,4.39052254 25.0195279,4.32236842 C23.6596986,4.02168846 22.7978197,3.74707156 22.4338654,3.49850946 C21.9299287,3.15372977 21.6779641,2.67465356 21.6779641,2.06126645 C21.6779641,1.50801533 21.8959334,1.04297063 22.3318787,0.666118421 C22.767824,0.289266208 23.443729,0.100842928 24.359614,0.100842928 C25.2315046,0.100842928 25.8794135,0.243162639 26.3033603,0.527806332 C26.7273071,0.812450025 27.019266,1.23339565 27.1792459,1.79065584 L25.5894535,2.08532072 C25.521462,1.83675863 25.3924801,1.64633084 25.202504,1.51403166 C25.0125278,1.38173248 24.7415659,1.31558388 24.3896101,1.31558388 C23.9456658,1.31558388 23.6277105,1.37772347 23.4357346,1.50200452 C23.3077507,1.59020398 23.2437597,1.70446065 23.2437597,1.84477796 C23.2437597,1.96504994 23.2997518,2.0672796 23.4117377,2.15146998 C23.5637187,2.26372383 24.0886449,2.42207957 24.9865322,2.62654194 C25.8844195,2.83100431 26.5113314,3.08156718 26.8672867,3.37823808 C27.2192425,3.67891803 27.3952178,4.09785916 27.3952178,4.63507401 C27.3952178,5.22039766 27.151252,5.72352791 26.6633133,6.14447985 C26.1753745,6.56543179 25.453476,6.77590461 24.497596,6.77590461 C23.629705,6.77590461 22.9428015,6.59950834 22.436865,6.24671053 C21.9309285,5.89391271 21.599975,5.4148365 21.4439946,4.80946752 L21.4439946,4.80946752 Z M28.2775149,4.80946752 L29.9692941,4.55088405 C30.0412851,4.87962747 30.1872645,5.12918809 30.4072369,5.2995734 C30.6272093,5.46995871 30.935166,5.55515008 31.3311163,5.55515008 C31.7670616,5.55515008 32.0950155,5.47496996 32.3149879,5.31460732 C32.4629693,5.20235347 32.5369589,5.05201574 32.5369589,4.86358964 C32.5369589,4.73529952 32.4969645,4.62906087 32.4169746,4.54487048 C32.3329851,4.46468916 32.1450116,4.39052254 31.8530482,4.32236842 C30.4932189,4.02168846 29.63134,3.74707156 29.2673857,3.49850946 C28.763449,3.15372977 28.5114844,2.67465356 28.5114844,2.06126645 C28.5114844,1.50801533 28.7294538,1.04297063 29.165399,0.666118421 C29.6013443,0.289266208 30.2772493,0.100842928 31.1931343,0.100842928 C32.0650249,0.100842928 32.7129338,0.243162639 33.1368806,0.527806332 C33.5608274,0.812450025 33.8527864,1.23339565 34.0127663,1.79065584 L32.4229738,2.08532072 C32.3549823,1.83675863 32.2260005,1.64633084 32.0360243,1.51403166 C31.8460482,1.38173248 31.5750862,1.31558388 31.2231304,1.31558388 C30.7791862,1.31558388 30.4612308,1.37772347 30.2692549,1.50200452 C30.141271,1.59020398 30.07728,1.70446065 30.07728,1.84477796 C30.07728,1.96504994 30.1332721,2.0672796 30.2452581,2.15146998 C30.397239,2.26372383 30.9221652,2.42207957 31.8200525,2.62654194 C32.7179398,2.83100431 33.3448517,3.08156718 33.700807,3.37823808 C34.0527628,3.67891803 34.2287381,4.09785916 34.2287381,4.63507401 C34.2287381,5.22039766 33.9847724,5.72352791 33.4968336,6.14447985 C33.0088949,6.56543179 32.2869963,6.77590461 31.3311163,6.77590461 C30.4632253,6.77590461 29.7763218,6.59950834 29.2703853,6.24671053 C28.7644488,5.89391271 28.4334954,5.4148365 28.2775149,4.80946752 L28.2775149,4.80946752 Z" id="css" fill="#0B0B0A"></path>
                    </g>
                    <g id="Text" transform="translate(95.913157, 80.285459)" fill="#0A0B09">
                        <g id="Conference" transform="translate(77.132959, 27.430865)">
                            <path d="M7.62207776,6.70985727 L9.91460343,7.35414808 C9.56381615,8.4881802 8.97827639,9.32983943 8.16200847,9.87979483 C7.34305766,10.4304193 6.30545169,10.7047279 5.04919055,10.7047279 C3.49445839,10.7047279 2.21606344,10.2343889 1.21534714,9.29170384 C0.212618677,8.34834969 -0.287739472,7.06110616 -0.287739472,5.4279661 C-0.287739472,3.69915254 0.215301563,2.35704728 1.22272508,1.40031222 C2.22880714,0.444246209 3.55348187,-0.0341213202 5.1920542,-0.0341213202 C6.62538579,-0.0341213202 7.7897581,0.341882248 8.68450042,1.09322034 C9.21772392,1.5367975 9.61747386,2.17439786 9.88307953,3.00535236 L7.54226191,3.50044603 C7.40342259,2.9632025 7.1150124,2.53768956 6.67501917,2.22524532 C6.23636739,1.91413916 5.70180245,1.75758252 5.07400724,1.75758252 C4.20609377,1.75758252 3.5011656,2.03456735 2.95989345,2.58719893 C2.41996274,3.13849242 2.1489913,4.03501338 2.1489913,5.27140946 C2.1489913,6.58474576 2.41660913,7.51873327 2.94916191,8.07537913 C3.48104396,8.63470116 4.17322842,8.91168599 5.0257153,8.91168599 C5.65485195,8.91168599 6.19411194,8.73505798 6.64751959,8.38113292 C7.0995858,8.02720785 7.42421495,7.470562 7.62207776,6.70985727" id="Fill-36"></path>
                            <path d="M13.709545,6.76605709 C13.709545,7.51204282 13.9100907,8.08340767 14.3098406,8.4808207 C14.7095906,8.87622658 15.2019001,9.0749331 15.7860984,9.0749331 C16.3716382,9.0749331 16.8632769,8.87622658 17.2596733,8.4808207 C17.6567403,8.08340767 17.8559446,7.50669045 17.8559446,6.75200714 C17.8559446,6.014719 17.6567403,5.44870651 17.2596733,5.05263158 C16.8632769,4.65454951 16.3716382,4.45718109 15.7860984,4.45718109 C15.2019001,4.45718109 14.7095906,4.65454951 14.3098406,5.05263158 C13.9100907,5.44870651 13.709545,6.02007136 13.709545,6.76605709 L13.709545,6.76605709 Z M11.4096414,6.6603479 C11.4096414,5.99933095 11.5927483,5.35838537 11.9596329,4.74085638 C12.327859,4.12265834 12.8490095,3.64964318 13.5224137,3.32381802 C14.195818,2.99732382 14.9490381,2.83541481 15.7767083,2.83541481 C17.0611397,2.83541481 18.1128309,3.20405888 18.9337938,3.94335415 C19.7527446,4.68331847 20.1638968,5.61730598 20.1638968,6.74531668 C20.1638968,7.88336307 19.7500617,8.82671722 18.9223916,9.57404103 C18.0933799,10.3227029 17.0504082,10.6966994 15.794147,10.6966994 C15.0187931,10.6966994 14.2756338,10.5414808 13.5707057,10.2290366 C12.8651068,9.91793042 12.327859,9.4603033 11.9596329,8.85950045 C11.5927483,8.2573595 11.4096414,7.52408564 11.4096414,6.6603479 L11.4096414,6.6603479 Z" id="Fill-37"></path>
                            <path d="M29.6378363,10.5267618 L27.3929319,10.5267618 L27.3929319,6.68911686 C27.3929319,5.87622658 27.3459814,5.35102587 27.2500682,5.11150758 C27.1541551,4.87399643 26.9985477,4.68867083 26.7825754,4.55619982 C26.5672738,4.42305977 26.3083754,4.35615522 26.0045386,4.35615522 C25.6148495,4.35615522 25.2654036,4.45182872 24.9575425,4.63983051 C24.6469985,4.82917038 24.436392,5.08006244 24.3223694,5.3911686 C24.2070053,5.70361285 24.1506647,6.27832293 24.1506647,7.11998216 L24.1506647,10.5267618 L21.9050895,10.5267618 L21.9050895,3.00535236 L23.991033,3.00535236 L23.991033,4.10927743 C24.7308387,3.2602587 25.6624707,2.83541481 26.7865997,2.83541481 C27.2815921,2.83541481 27.7349998,2.91369313 28.1448105,3.07225691 C28.5546213,3.23015165 28.8651653,3.43287244 29.0764425,3.67707404 C29.2857076,3.92395183 29.4325956,4.20227475 29.5150943,4.514719 C29.597593,4.82582516 29.6378363,5.27140946 29.6378363,5.85280999 L29.6378363,10.5267618" id="Fill-39"></path>
                            <path d="M30.9323286,3.00535236 L32.1798704,3.00535236 L32.1798704,2.43800178 C32.1798704,1.80575379 32.2556619,1.33273863 32.4072449,1.02163247 C32.5594987,0.709188225 32.8371773,0.455619982 33.2456466,0.259589652 C33.6534452,0.063559322 34.1678885,-0.0341213202 34.7916594,-0.0341213202 C35.4308569,-0.0341213202 36.0573106,0.0508474576 36.6690085,0.222123104 L36.3651718,1.60972346 C36.0090187,1.53412132 35.6642679,1.49732382 35.3356144,1.49732382 C35.0103146,1.49732382 34.7775743,1.56422837 34.636052,1.69870651 C34.4945298,1.83318466 34.4247748,2.09076717 34.4247748,2.47479929 L34.4247748,3.00535236 L36.1015783,3.00535236 L36.1015783,4.57091882 L34.4247748,4.57091882 L34.4247748,10.5280999 L32.1785289,10.5280999 L32.1785289,4.57091882 L30.9323286,4.57091882 L30.9323286,3.00535236" id="Fill-40"></path>
                            <path d="M42.4056885,6.12176628 C42.3882497,5.54571811 42.2205694,5.10749331 41.9026475,4.80709188 C41.5827134,4.50802855 41.193695,4.35749331 40.736263,4.35749331 C40.2452949,4.35749331 39.8415207,4.51605709 39.5209159,4.83184657 C39.2023232,5.14964318 39.0453744,5.57850134 39.0507402,6.12176628 L42.4056885,6.12176628 L42.4056885,6.12176628 Z M42.27691,8.13291704 L44.5144365,8.46610169 C44.2273678,9.19402319 43.7732894,9.74665477 43.1522014,10.1266726 C42.5311134,10.5073595 41.7557595,10.6980375 40.822786,10.6980375 C39.3478697,10.6980375 38.2552646,10.2705174 37.5476536,9.41480821 C36.9882719,8.73037467 36.7092518,7.86663693 36.7092518,6.82225691 C36.7092518,5.57716325 37.0761364,4.59968778 37.8112471,3.89384478 C38.5463577,3.18800178 39.4759775,2.83541481 40.5987651,2.83541481 C41.8617335,2.83541481 42.857084,3.20405888 43.5868289,3.94335415 C44.3165737,4.68331847 44.6653488,5.8146744 44.6338249,7.33942908 L39.0098262,7.33942908 C39.0259235,7.93019625 39.2063475,8.38916146 39.5524398,8.71699376 C39.8992027,9.04616414 40.3304766,9.20941124 40.8462613,9.20941124 C41.1990607,9.20941124 41.4935074,9.12578055 41.7336257,8.95450491 C41.9730732,8.7852364 42.1555094,8.5102587 42.27691,8.13291704 L42.27691,8.13291704 Z" id="Fill-42"></path>
                            <path d="M48.6125442,10.5267618 L46.366969,10.5267618 L46.366969,3.00535236 L48.4522417,3.00535236 L48.4522417,4.07448707 C48.8090655,3.57002676 49.1296703,3.23684211 49.4153976,3.07560214 C49.701125,2.91503122 50.0244127,2.83541481 50.3859315,2.83541481 C50.8983626,2.83541481 51.3893307,2.96119536 51.8635307,3.21074933 L51.1693341,4.9455843 C50.7910472,4.72881356 50.4382477,4.62042819 50.11496,4.62042819 C49.8003917,4.62042819 49.5334446,4.69736842 49.3154602,4.85057984 C49.096805,5.00312221 48.9251003,5.28144514 48.7996754,5.68287244 C48.6749212,6.08363069 48.6125442,6.92395183 48.6125442,8.20450491 L48.6125442,10.5267618" id="Fill-43"></path>
                            <path d="M57.8711821,6.12176628 C57.8557555,5.54571811 57.6880751,5.10749331 57.368141,4.80709188 C57.0488777,4.50802855 56.6598593,4.35749331 56.2024273,4.35749331 C55.71213,4.35749331 55.307685,4.51605709 54.9877509,4.83184657 C54.6684875,5.14964318 54.510868,5.57850134 54.5162337,6.12176628 L57.8711821,6.12176628 L57.8711821,6.12176628 Z M57.7430743,8.13291704 L59.9806008,8.46610169 C59.6935321,9.19402319 59.238783,9.74665477 58.6190364,10.1266726 C57.9986191,10.5073595 57.2212531,10.6980375 56.2902918,10.6980375 C54.8153755,10.6980375 53.7227703,10.2705174 53.0151593,9.41480821 C52.4557777,8.73037467 52.1754161,7.86663693 52.1754161,6.82225691 C52.1754161,5.57716325 52.5436422,4.59968778 53.2774113,3.89384478 C54.0131927,3.18800178 54.9421418,2.83541481 56.0662708,2.83541481 C57.3292392,2.83541481 58.3245897,3.20405888 59.0543346,3.94335415 C59.7840795,4.68331847 60.1321838,5.8146744 60.1006599,7.33942908 L54.4759905,7.33942908 C54.4927585,7.93019625 54.6725118,8.38916146 55.0192748,8.71699376 C55.365367,9.04616414 55.7959701,9.20941124 56.313767,9.20941124 C56.6645543,9.20941124 56.9610132,9.12578055 57.2004607,8.95450491 C57.440579,8.7852364 57.621003,8.5102587 57.7430743,8.13291704 L57.7430743,8.13291704 Z" id="Fill-44"></path>
                            <path d="M69.6470373,10.5267618 L67.4028036,10.5267618 L67.4028036,6.68911686 C67.4028036,5.87622658 67.3558531,5.35102587 67.2585985,5.11150758 C67.1633561,4.87399643 67.007078,4.68867083 66.7911057,4.55619982 C66.5764749,4.42305977 66.3169057,4.35615522 66.0117275,4.35615522 C65.6240505,4.35615522 65.2752754,4.45182872 64.9647314,4.63983051 C64.6568703,4.82917038 64.4462638,5.08006244 64.3308997,5.3911686 C64.216877,5.70361285 64.159195,6.27832293 64.159195,7.11998216 L64.159195,10.5267618 L61.9142906,10.5267618 L61.9142906,3.00535236 L63.9995633,3.00535236 L63.9995633,4.10927743 C64.739369,3.2602587 65.671001,2.83541481 66.7964715,2.83541481 C67.2914639,2.83541481 67.7435301,2.91369313 68.1533408,3.07225691 C68.5638223,3.23015165 68.8743663,3.43287244 69.0849728,3.67707404 C69.2942379,3.92395183 69.4411259,4.20227475 69.5236246,4.514719 C69.6074648,4.82582516 69.6470373,5.27140946 69.6470373,5.85280999 L69.6470373,10.5267618" id="Fill-45"></path>
                            <path d="M79.322864,5.22925959 L77.1101541,5.58184657 C77.0343626,5.191124 76.8666823,4.89607493 76.6017473,4.69736842 C76.3381538,4.49866191 75.9967566,4.39964318 75.5762143,4.39964318 C75.0168327,4.39964318 74.5714737,4.57225691 74.2374545,4.91280107 C73.9047767,5.25535236 73.737767,5.82805531 73.737767,6.63157895 C73.737767,7.52408564 73.9067888,8.15499554 74.2448324,8.52230152 C74.5842174,8.89094558 75.0376251,9.0749331 75.6090797,9.0749331 C76.034317,9.0749331 76.3830922,8.96788582 76.655405,8.75245317 C76.9263765,8.53768956 77.1182028,8.16837645 77.2295425,7.64451383 L79.4355452,7.97769848 C79.2061584,8.8735504 78.7661652,9.55196253 78.1162362,10.0095897 C77.4663072,10.4678858 76.5963816,10.6966994 75.5037764,10.6966994 C74.2636126,10.6966994 73.2742986,10.3501338 72.5358343,9.65499554 C71.7980408,8.95985727 71.4298148,8.00111508 71.4298148,6.77274755 C71.4298148,5.52966102 71.7993822,4.56422837 72.5391879,3.87176628 C73.2796643,3.18064228 74.2817221,2.83407672 75.5446904,2.83407672 C76.5769306,2.83407672 77.3985643,3.03144514 78.0089208,3.42618198 C78.6179358,3.82091882 79.0552461,4.42172168 79.322864,5.22925959" id="Fill-46"></path>
                            <path d="M86.0649553,6.12176628 C86.0481872,5.54571811 85.8805069,5.10749331 85.5605728,4.80709188 C85.2413094,4.50802855 84.8536325,4.35749331 84.394859,4.35749331 C83.9052324,4.35749331 83.5001167,4.51605709 83.1821948,4.83184657 C82.8622607,5.14964318 82.7039704,5.57850134 82.7100069,6.12176628 L86.0649553,6.12176628 L86.0649553,6.12176628 Z M85.9368475,8.13291704 L88.174374,8.46610169 C87.8859638,9.19402319 87.4312147,9.74665477 86.8107974,10.1266726 C86.1910509,10.5073595 85.4143555,10.6980375 84.4827235,10.6980375 C83.0078072,10.6980375 81.9165435,10.2705174 81.207591,9.41480821 C80.6482094,8.73037467 80.3678479,7.86663693 80.3678479,6.82225691 C80.3678479,5.57716325 80.7360739,4.59968778 81.4711845,3.89384478 C82.2056245,3.18800178 83.1345736,2.83541481 84.2587026,2.83541481 C85.521671,2.83541481 86.5183629,3.20405888 87.2467663,3.94335415 C87.9765112,4.68331847 88.3252863,5.8146744 88.2937624,7.33942908 L82.6697636,7.33942908 C82.6851902,7.93019625 82.866285,8.38916146 83.2117065,8.71699376 C83.5577988,9.04616414 83.990414,9.20941124 84.5061988,9.20941124 C84.8589982,9.20941124 85.1534449,9.12578055 85.3928924,8.95450491 C85.6330107,8.7852364 85.8147762,8.5102587 85.9368475,8.13291704 L85.9368475,8.13291704 Z" id="Fill-47"></path>
                        </g>
                        <g id="Developer">
                            <path d="M5.05254415,3.57738626 L5.05254415,18.675736 L8.83138841,18.675736 C10.2445984,18.675736 11.2654363,18.603479 11.8912193,18.4576271 C12.712853,18.2716325 13.394306,17.955843 13.9349074,17.5089206 C14.477521,17.0633363 14.9188556,16.3300624 15.2609236,15.30843 C15.6043329,14.2888046 15.7746961,12.89719 15.7746961,11.1342551 C15.7746961,9.3719893 15.6043329,8.0191793 15.2609236,7.07582516 C14.9188556,6.1338091 14.4406313,5.39652096 13.8249091,4.86730598 C13.2078454,4.33942908 12.4284672,3.98148974 11.4814086,3.79482605 C10.775139,3.64964318 9.38942859,3.57738626 7.32628963,3.57738626 L5.05254415,3.57738626 L5.05254415,3.57738626 Z M-0.0114022635,-0.279661017 L9.24119917,-0.279661017 C11.3284841,-0.279661017 12.9187645,-0.133140054 14.0127111,0.156556646 C15.483603,0.551293488 16.7438885,1.25044603 17.7915553,2.25535236 C18.8412343,3.26159679 19.638722,4.4926405 20.1867014,5.94781445 C20.73401,7.40499554 21.0076643,9.20071365 21.0076643,11.3369759 C21.0076643,13.2123104 20.750778,14.8300624 20.2376762,16.1875558 C19.609881,17.8461195 18.7151387,19.1888938 17.5534492,20.2152096 C16.6741335,20.9926405 15.4903103,21.6001338 13.9952723,22.0350134 C12.8778505,22.3554862 11.3848247,22.5160571 9.51552421,22.5160571 L-0.0114022635,22.5160571 L-0.0114022635,-0.279661017 L-0.0114022635,-0.279661017 Z" id="Fill-26"></path>
                            <path d="M36.0573106,12.8450045 C36.0231039,11.5798394 35.6642679,10.6184211 34.9787907,9.95941124 C34.2953256,9.30240856 33.4636311,8.97323818 32.4823657,8.97323818 C31.4340282,8.97323818 30.5667854,9.32047279 29.8833203,10.014273 C29.1991845,10.7087422 28.8624824,11.6520963 28.8745554,12.8450045 L36.0573106,12.8450045 L36.0573106,12.8450045 Z M35.7836563,17.2607047 L40.5712655,17.9906334 C39.9568847,19.587645 38.9850095,20.8026316 37.6569811,21.6369313 C36.3269406,22.4719001 34.6662345,22.8900535 32.6708384,22.8900535 C29.5124114,22.8900535 27.1756181,21.9513827 25.6597878,20.0753791 C24.4625502,18.5720339 23.863596,16.6752899 23.863596,14.3844781 C23.863596,11.646744 24.6510229,9.50379126 26.2231938,7.95361285 C27.7973769,6.40410348 29.7860657,5.63068689 32.1926141,5.63068689 C34.8936091,5.63068689 37.026503,6.44090098 38.5879424,8.06266726 C40.1493818,9.68510259 40.8979068,12.1706066 40.8281518,15.5185103 L28.7893738,15.5185103 C28.8235806,16.8151204 29.2099161,17.8220339 29.9510632,18.5425959 C30.6928811,19.2638269 31.6164644,19.6244425 32.7218132,19.6244425 C33.4750333,19.6244425 34.1081943,19.4371097 34.6212962,19.0637823 C35.1337273,18.691124 35.5200628,18.0903211 35.7836563,17.2607047 L35.7836563,17.2607047 Z" id="Fill-27"></path>
                            <path d="M49.7373439,22.5160571 L42.4184322,6.00267618 L47.4635984,6.00267618 L50.8836067,14.4299732 L51.8756037,17.2446476 C52.137185,16.530107 52.3035239,16.05843 52.3719375,15.8282783 C52.5315692,15.3632917 52.7019324,14.8962979 52.8857101,14.4299732 L56.3399252,6.00133809 L61.2811296,6.00133809 L54.0641675,22.5160571 L49.7373439,22.5160571" id="Fill-28"></path>
                            <path d="M75.0141498,12.8450045 C74.979943,11.5798394 74.6211071,10.6184211 73.9356298,9.95941124 C73.2521648,9.30240856 72.4204702,8.97323818 71.4405463,8.97323818 C70.3908673,8.97323818 69.5236246,9.32047279 68.8401595,10.014273 C68.1560237,10.7087422 67.8193216,11.6520963 67.8313946,12.8450045 L75.0141498,12.8450045 L75.0141498,12.8450045 Z M74.7404955,17.2607047 L79.5281047,17.9906334 C78.9123825,19.587645 77.9405072,20.8026316 76.6124789,21.6369313 C75.2851213,22.4719001 73.6230737,22.8900535 71.6276776,22.8900535 C68.4692506,22.8900535 66.1324573,21.9513827 64.616627,20.0753791 C63.4193893,18.5720339 62.8204351,16.6752899 62.8204351,14.3844781 C62.8204351,11.646744 63.6065206,9.50379126 65.1813744,7.95361285 C66.7528746,6.40410348 68.7429049,5.63068689 71.1494532,5.63068689 C73.8504482,5.63068689 75.9833422,6.44090098 77.5447816,8.06266726 C79.106221,9.68510259 79.8534046,12.1706066 79.784991,15.5185103 L67.7462129,15.5185103 C67.7804197,16.8151204 68.1680967,17.8220339 68.9092438,18.5425959 C69.6497202,19.2638269 70.5733036,19.6244425 71.6799938,19.6244425 C72.4318725,19.6244425 73.0650335,19.4371097 73.5781353,19.0637823 C74.0905665,18.691124 74.4782434,18.0903211 74.7404955,17.2607047 L74.7404955,17.2607047 Z" id="Fill-29"></path>
                            <path d="M83.7020038,-0.279661017 L88.5070518,-0.279661017 L88.5070518,22.5160571 L83.7020038,22.5160571 L83.7020038,-0.279661017 Z" id="Fill-30"></path>
                            <path d="M97.2445392,14.2586976 C97.2445392,15.89719 97.6717887,17.1503122 98.5282999,18.0220785 C99.382799,18.8925067 100.437173,19.3287244 101.690751,19.3287244 C102.945671,19.3287244 103.998033,18.8925067 104.846495,18.0220785 C105.695629,17.1503122 106.121537,15.8858162 106.121537,14.2272525 C106.121537,12.6108385 105.695629,11.367083 104.846495,10.4953167 C103.998033,9.62488849 102.945671,9.19000892 101.690751,9.19000892 C100.437173,9.19000892 99.382799,9.62488849 98.5282999,10.4953167 C97.6717887,11.367083 97.2445392,12.6215433 97.2445392,14.2586976 L97.2445392,14.2586976 Z M92.322115,14.0265388 C92.322115,12.5747101 92.7131456,11.1710526 93.5005725,9.81222123 C94.2866579,8.45405888 95.4000554,7.41837645 96.8441186,6.70182872 C98.2861695,5.98728814 99.8959008,5.63068689 101.675325,5.63068689 C104.422599,5.63068689 106.67287,6.44090098 108.429489,8.06266726 C110.186108,9.68510259 111.064083,11.735727 111.064083,14.2132025 C111.064083,16.7114184 110.177389,18.7814451 108.404672,20.4252899 C106.630614,22.0677966 104.399795,22.8900535 101.709531,22.8900535 C100.04413,22.8900535 98.4565328,22.5475022 96.9460682,21.8623996 C95.4356037,21.1793042 94.2866579,20.177074 93.5005725,18.8543711 C92.7131456,17.5323372 92.322115,15.9239518 92.322115,14.0265388 L92.322115,14.0265388 Z" id="Fill-31"></path>
                            <path d="M119.442734,13.9790366 C119.442734,15.8349688 119.84785,17.205843 120.65741,18.0929973 C121.466971,18.9788136 122.452932,19.4217217 123.615292,19.4217217 C124.732714,19.4217217 125.662333,19.0156111 126.404151,18.2000446 C127.143957,17.3871543 127.514866,16.0530776 127.514866,14.1971454 C127.514866,12.4663247 127.132555,11.1804193 126.368603,10.3400981 C125.605322,9.49977698 124.658934,9.08028546 123.53011,9.08028546 C122.356348,9.08028546 121.380448,9.49308653 120.604423,10.3180196 C119.830411,11.1422837 119.442734,12.3626227 119.442734,13.9790366 L119.442734,13.9790366 Z M114.688661,6.00267618 L119.16908,6.00267618 L119.16908,8.4279661 C119.750595,7.59968778 120.538022,6.92528992 121.529348,6.40677966 C122.521345,5.8882694 123.621999,5.63068689 124.830639,5.63068689 C126.940058,5.63068689 128.729542,6.38202498 130.199093,7.88470116 C131.670655,9.38737734 132.406437,11.4821588 132.406437,14.1663693 C132.406437,16.9248439 131.66529,19.0677966 130.183666,20.5965656 C128.700701,22.1253345 126.904509,22.8900535 124.796432,22.8900535 C123.793033,22.8900535 122.884205,22.7080731 122.067937,22.3461195 C121.253011,21.9828278 120.395158,21.3606155 119.49505,20.4788136 L119.49505,28.7990633 L114.688661,28.7990633 L114.688661,6.00267618 L114.688661,6.00267618 Z" id="Fill-32"></path>
                            <path d="M147.010724,12.8450045 C146.975176,11.5798394 146.617681,10.6184211 145.933546,9.95941124 C145.248739,9.30240856 144.416374,8.97323818 143.43645,8.97323818 C142.387442,8.97323818 141.52154,9.32047279 140.836734,10.014273 C140.151257,10.7087422 139.815896,11.6520963 139.827969,12.8450045 L147.010724,12.8450045 L147.010724,12.8450045 Z M146.736399,17.2607047 L151.524679,17.9906334 C150.910298,19.587645 149.937082,20.8026316 148.609724,21.6369313 C147.280354,22.4719001 145.618977,22.8900535 143.624252,22.8900535 C140.465825,22.8900535 138.128361,21.9513827 136.613201,20.0753791 C135.415964,18.5720339 134.817009,16.6752899 134.817009,14.3844781 C134.817009,11.646744 135.604436,9.50379126 137.177278,7.95361285 C138.75079,6.40410348 140.739479,5.63068689 143.144686,5.63068689 C145.847023,5.63068689 147.978575,6.44090098 149.541356,8.06266726 C151.102795,9.68510259 151.849308,12.1706066 151.782907,15.5185103 L139.742787,15.5185103 C139.776323,16.8151204 140.164671,17.8220339 140.905818,18.5425959 C141.646295,19.2638269 142.569878,19.6244425 143.675227,19.6244425 C144.428447,19.6244425 145.060937,19.4371097 145.573368,19.0637823 C146.087141,18.691124 146.473476,18.0903211 146.736399,17.2607047 L146.736399,17.2607047 Z" id="Fill-33"></path>
                            <path d="M160.299056,23.4634255 L155.494008,23.4634255 L155.494008,6.9500446 L159.955647,6.9500446 L159.955647,9.29839429 C160.72094,8.18911686 161.407088,7.45851918 162.016774,7.10459411 C162.62713,6.75267618 163.319985,6.57671722 164.095339,6.57671722 C165.189286,6.57671722 166.245001,6.85102587 167.259132,7.40098127 L165.772143,11.2105263 C164.96124,10.7334969 164.209362,10.4953167 163.513824,10.4953167 C162.841761,10.4953167 162.270977,10.6639161 161.804155,11.0011151 C161.336662,11.338314 160.968436,11.9471454 160.701489,12.8282783 C160.43253,13.7087422 160.299056,15.5539697 160.299056,18.3632917 L160.299056,23.4634255" id="Fill-34"></path>
                        </g>
                    </g>
                </g>
            </g>
        </g>
    </g>
</svg>